<mxfile host="Electron" agent="Mozilla/5.0 (Windows NT 10.0; Win64; x64) AppleWebKit/537.36 (KHTML, like Gecko) draw.io/28.1.2 Chrome/138.0.7204.243 Electron/37.4.0 Safari/537.36" version="28.1.2">
  <diagram name="Page-1" id="VXW28D9NfRBgtKwl_Auw">
    <mxGraphModel dx="3470" dy="2980" grid="1" gridSize="10" guides="1" tooltips="1" connect="1" arrows="1" fold="1" page="1" pageScale="1" pageWidth="850" pageHeight="1100" math="0" shadow="0">
      <root>
        <mxCell id="0" />
        <mxCell id="1" parent="0" />
        <mxCell id="YeODS-Fjwhld5FZguGB1-2" value="" style="rounded=0;whiteSpace=wrap;html=1;fillColor=none;dashed=1;dashPattern=8 8;strokeColor=#999999;" vertex="1" parent="1">
          <mxGeometry x="-370" y="140" width="190" height="630" as="geometry" />
        </mxCell>
        <mxCell id="YeODS-Fjwhld5FZguGB1-3" value="Sources" style="rounded=0;whiteSpace=wrap;html=1;fontSize=24;fillColor=#647687;dashed=1;dashPattern=1 4;strokeWidth=0;fontColor=#ffffff;strokeColor=#314354;" vertex="1" parent="1">
          <mxGeometry x="-320" y="95" width="90" height="40" as="geometry" />
        </mxCell>
        <mxCell id="YeODS-Fjwhld5FZguGB1-4" value="" style="rounded=0;whiteSpace=wrap;html=1;fillColor=none;dashed=1;dashPattern=8 8;strokeColor=#999999;" vertex="1" parent="1">
          <mxGeometry x="-60" y="145" width="730" height="635" as="geometry" />
        </mxCell>
        <mxCell id="YeODS-Fjwhld5FZguGB1-5" value="" style="rounded=0;whiteSpace=wrap;html=1;fillColor=none;dashed=1;dashPattern=8 8;strokeColor=#999999;" vertex="1" parent="1">
          <mxGeometry x="780" y="130" width="290" height="650" as="geometry" />
        </mxCell>
        <mxCell id="YeODS-Fjwhld5FZguGB1-6" value="Data Warehouse" style="rounded=0;whiteSpace=wrap;html=1;fontSize=24;dashed=1;dashPattern=1 4;strokeWidth=0;fillColor=#647687;fontColor=#ffffff;strokeColor=#314354;" vertex="1" parent="1">
          <mxGeometry x="260" y="80" width="250" height="60" as="geometry" />
        </mxCell>
        <mxCell id="YeODS-Fjwhld5FZguGB1-7" value="Consume" style="rounded=0;whiteSpace=wrap;html=1;fontSize=24;strokeWidth=0;dashed=1;dashPattern=1 4;fillColor=#647687;fontColor=#ffffff;strokeColor=#314354;" vertex="1" parent="1">
          <mxGeometry x="870" y="90" width="100" height="50" as="geometry" />
        </mxCell>
        <mxCell id="YeODS-Fjwhld5FZguGB1-8" value="Bronze Layer" style="rounded=1;whiteSpace=wrap;html=1;fillColor=#ffe6cc;strokeColor=#d79b00;fontSize=20;" vertex="1" parent="1">
          <mxGeometry x="-10" y="190" width="140" height="60" as="geometry" />
        </mxCell>
        <mxCell id="YeODS-Fjwhld5FZguGB1-10" value="Silver Layer" style="rounded=1;whiteSpace=wrap;html=1;fontSize=20;fillColor=#dae8fc;strokeColor=#6c8ebf;" vertex="1" parent="1">
          <mxGeometry x="245" y="190" width="150" height="60" as="geometry" />
        </mxCell>
        <mxCell id="YeODS-Fjwhld5FZguGB1-11" value="Gold Layer" style="rounded=1;whiteSpace=wrap;html=1;fillColor=#fff2cc;strokeColor=#d6b656;fontSize=20;" vertex="1" parent="1">
          <mxGeometry x="505" y="190" width="150" height="60" as="geometry" />
        </mxCell>
        <mxCell id="YeODS-Fjwhld5FZguGB1-12" value="" style="rounded=0;whiteSpace=wrap;html=1;fillColor=none;strokeColor=#d79b00;" vertex="1" parent="1">
          <mxGeometry x="-20" y="250" width="160" height="500" as="geometry" />
        </mxCell>
        <mxCell id="YeODS-Fjwhld5FZguGB1-15" value="&lt;font style=&quot;font-size: 15px;&quot;&gt;CRM&lt;/font&gt;" style="image;aspect=fixed;html=1;points=[];align=center;fontSize=12;image=img/lib/azure2/general/Folder_Blank.svg;" vertex="1" parent="1">
          <mxGeometry x="-328.22" y="240" width="69" height="56" as="geometry" />
        </mxCell>
        <mxCell id="YeODS-Fjwhld5FZguGB1-16" value="" style="image;aspect=fixed;html=1;points=[];align=center;fontSize=12;image=img/lib/azure2/general/File.svg;" vertex="1" parent="1">
          <mxGeometry x="-308.33000000000004" y="250" width="29.22" height="36" as="geometry" />
        </mxCell>
        <mxCell id="YeODS-Fjwhld5FZguGB1-17" value="ERP" style="image;aspect=fixed;html=1;points=[];align=center;fontSize=15;image=img/lib/azure2/general/Folder_Blank.svg;" vertex="1" parent="1">
          <mxGeometry x="-328.22" y="372" width="69" height="56.00000000000001" as="geometry" />
        </mxCell>
        <mxCell id="YeODS-Fjwhld5FZguGB1-18" value="" style="image;aspect=fixed;html=1;points=[];align=center;fontSize=12;image=img/lib/azure2/general/File.svg;" vertex="1" parent="1">
          <mxGeometry x="-304.61" y="384" width="29.22" height="36" as="geometry" />
        </mxCell>
        <mxCell id="YeODS-Fjwhld5FZguGB1-24" value="Object Type : CSV File&lt;div&gt;&lt;br&gt;&lt;/div&gt;&lt;div&gt;Interface : Files in Folder&lt;br&gt;&lt;div&gt;&lt;br&gt;&lt;/div&gt;&lt;/div&gt;" style="text;html=1;align=left;verticalAlign=middle;whiteSpace=wrap;rounded=0;fontStyle=1;fontSize=14;" vertex="1" parent="1">
          <mxGeometry x="-380" y="550" width="180" height="80" as="geometry" />
        </mxCell>
        <mxCell id="YeODS-Fjwhld5FZguGB1-25" value="" style="rounded=0;whiteSpace=wrap;html=1;fillColor=none;strokeColor=#6c8ebf;" vertex="1" parent="1">
          <mxGeometry x="240" y="250" width="160" height="500" as="geometry" />
        </mxCell>
        <mxCell id="YeODS-Fjwhld5FZguGB1-26" value="" style="rounded=0;whiteSpace=wrap;html=1;fillColor=none;strokeColor=#d6b656;" vertex="1" parent="1">
          <mxGeometry x="500" y="250" width="160" height="500" as="geometry" />
        </mxCell>
        <mxCell id="YeODS-Fjwhld5FZguGB1-27" value="" style="sketch=0;shadow=0;dashed=0;html=1;strokeColor=#d79b00;labelPosition=center;verticalLabelPosition=bottom;verticalAlign=top;outlineConnect=0;align=center;shape=mxgraph.office.databases.database_mini_2;fillColor=#ffe6cc;" vertex="1" parent="1">
          <mxGeometry x="26.25" y="324.25" width="67.5" height="86.5" as="geometry" />
        </mxCell>
        <mxCell id="YeODS-Fjwhld5FZguGB1-28" value="" style="sketch=0;shadow=0;dashed=0;html=1;strokeColor=#6c8ebf;labelPosition=center;verticalLabelPosition=bottom;verticalAlign=top;outlineConnect=0;align=center;shape=mxgraph.office.databases.database_mini_2;fillColor=#dae8fc;" vertex="1" parent="1">
          <mxGeometry x="290" y="334.25" width="67.5" height="76.5" as="geometry" />
        </mxCell>
        <mxCell id="YeODS-Fjwhld5FZguGB1-29" value="" style="sketch=0;shadow=0;dashed=0;html=1;strokeColor=#d6b656;labelPosition=center;verticalLabelPosition=bottom;verticalAlign=top;outlineConnect=0;align=center;shape=mxgraph.office.databases.database_mini_2;fillColor=#fff2cc;" vertex="1" parent="1">
          <mxGeometry x="546.25" y="334.25" width="67.5" height="76.5" as="geometry" />
        </mxCell>
        <mxCell id="YeODS-Fjwhld5FZguGB1-30" value="" style="shape=singleArrow;whiteSpace=wrap;html=1;fillColor=#0050ef;strokeColor=#001DBC;fontColor=#ffffff;" vertex="1" parent="1">
          <mxGeometry x="-180" y="350.75" width="120" height="60" as="geometry" />
        </mxCell>
        <mxCell id="YeODS-Fjwhld5FZguGB1-31" value="" style="shape=singleArrow;whiteSpace=wrap;html=1;fillColor=#0050ef;fontColor=#ffffff;strokeColor=#001DBC;" vertex="1" parent="1">
          <mxGeometry x="140" y="350.75" width="110" height="60" as="geometry" />
        </mxCell>
        <mxCell id="YeODS-Fjwhld5FZguGB1-32" value="" style="shape=singleArrow;whiteSpace=wrap;html=1;fillColor=#0050ef;fontColor=#ffffff;strokeColor=#001DBC;" vertex="1" parent="1">
          <mxGeometry x="400" y="350.75" width="100" height="60" as="geometry" />
        </mxCell>
        <mxCell id="YeODS-Fjwhld5FZguGB1-33" value="" style="shape=singleArrow;whiteSpace=wrap;html=1;fillColor=#0050ef;fontColor=#ffffff;strokeColor=#001DBC;" vertex="1" parent="1">
          <mxGeometry x="670" y="340" width="120" height="60" as="geometry" />
        </mxCell>
        <mxCell id="YeODS-Fjwhld5FZguGB1-34" value="Raw Data" style="text;html=1;align=center;verticalAlign=middle;whiteSpace=wrap;rounded=0;fontSize=15;fontColor=#4D4D4D;" vertex="1" parent="1">
          <mxGeometry x="26.25" y="420" width="70" height="30" as="geometry" />
        </mxCell>
        <mxCell id="YeODS-Fjwhld5FZguGB1-35" value="Cleaned, Standardized Data&lt;div&gt;&lt;br&gt;&lt;/div&gt;" style="text;html=1;align=center;verticalAlign=middle;whiteSpace=wrap;rounded=0;fontSize=15;fontColor=#4D4D4D;" vertex="1" parent="1">
          <mxGeometry x="290" y="430" width="70" height="30" as="geometry" />
        </mxCell>
        <mxCell id="YeODS-Fjwhld5FZguGB1-36" value="Business Reday Data" style="text;html=1;align=center;verticalAlign=middle;whiteSpace=wrap;rounded=0;fontSize=15;fontColor=#4D4D4D;" vertex="1" parent="1">
          <mxGeometry x="546.25" y="430" width="70" height="30" as="geometry" />
        </mxCell>
        <mxCell id="YeODS-Fjwhld5FZguGB1-49" value="&lt;div style=&quot;text-align: left;&quot;&gt;&lt;span style=&quot;background-color: transparent; color: light-dark(rgb(0, 0, 0), rgb(255, 255, 255));&quot;&gt;Object Type:Table&lt;/span&gt;&lt;/div&gt;&lt;div style=&quot;text-align: left;&quot;&gt;&lt;br&gt;&lt;/div&gt;&lt;div style=&quot;text-align: left;&quot;&gt;Load&lt;/div&gt;&lt;div style=&quot;text-align: left;&quot;&gt;&lt;span style=&quot;white-space: pre;&quot;&gt;&#x9;&lt;/span&gt;-Batch Processing&lt;br&gt;&lt;/div&gt;&lt;div style=&quot;text-align: left;&quot;&gt;&lt;span style=&quot;white-space: pre;&quot;&gt;&#x9;&lt;/span&gt;-Full Load (Trunc &amp;amp; Insert)&lt;br&gt;&lt;/div&gt;&lt;div style=&quot;text-align: left;&quot;&gt;&lt;br&gt;&lt;/div&gt;&lt;div style=&quot;text-align: left;&quot;&gt;No Transformations&lt;/div&gt;&lt;div style=&quot;text-align: left;&quot;&gt;Data Model : None&lt;/div&gt;&lt;div style=&quot;text-align: left;&quot;&gt;&lt;br&gt;&lt;/div&gt;&lt;div&gt;&lt;br&gt;&lt;/div&gt;" style="text;html=1;align=center;verticalAlign=middle;whiteSpace=wrap;rounded=0;fontStyle=1;fontSize=10;" vertex="1" parent="1">
          <mxGeometry x="-8.75" y="550" width="140" height="80" as="geometry" />
        </mxCell>
        <mxCell id="YeODS-Fjwhld5FZguGB1-50" value="&lt;div style=&quot;text-align: left;&quot;&gt;&lt;span style=&quot;background-color: transparent; color: light-dark(rgb(0, 0, 0), rgb(255, 255, 255));&quot;&gt;Object Type:Table&lt;/span&gt;&lt;/div&gt;&lt;div style=&quot;text-align: left;&quot;&gt;&lt;br&gt;&lt;/div&gt;&lt;div style=&quot;text-align: left;&quot;&gt;Load&lt;/div&gt;&lt;div style=&quot;text-align: left;&quot;&gt;&lt;span style=&quot;white-space: pre;&quot;&gt;&#x9;&lt;/span&gt;-Batch Processing&lt;br&gt;&lt;/div&gt;&lt;div style=&quot;text-align: left;&quot;&gt;&lt;span style=&quot;white-space: pre;&quot;&gt;&#x9;&lt;/span&gt;-Full Load (Trunc &amp;amp; Insert)&lt;br&gt;&lt;/div&gt;&lt;div style=&quot;text-align: left;&quot;&gt;&lt;br&gt;&lt;/div&gt;&lt;div style=&quot;text-align: left;&quot;&gt;Transformations:&lt;/div&gt;&lt;div style=&quot;text-align: left;&quot;&gt;&lt;span style=&quot;white-space: pre;&quot;&gt;&#x9;&lt;/span&gt;-Data Cleansing&lt;br&gt;&lt;/div&gt;&lt;div style=&quot;text-align: left;&quot;&gt;&lt;span style=&quot;white-space: pre;&quot;&gt;&#x9;&lt;/span&gt;-Data Standardizaiton&lt;br&gt;&lt;/div&gt;&lt;div style=&quot;text-align: left;&quot;&gt;&lt;span style=&quot;white-space: pre;&quot;&gt;&#x9;&lt;/span&gt;-Data Normalization&lt;br&gt;&lt;/div&gt;&lt;div style=&quot;text-align: left;&quot;&gt;&lt;span style=&quot;white-space: pre;&quot;&gt;&#x9;&lt;/span&gt;-Derived Columns&lt;br&gt;&lt;/div&gt;&lt;div style=&quot;text-align: left;&quot;&gt;&lt;span style=&quot;white-space: pre;&quot;&gt;&#x9;&lt;/span&gt;-Data Enrichment&lt;br&gt;&lt;/div&gt;&lt;div style=&quot;text-align: left;&quot;&gt;&lt;br&gt;&lt;/div&gt;&lt;div style=&quot;text-align: left;&quot;&gt;Data Model : None&lt;/div&gt;&lt;div style=&quot;text-align: left;&quot;&gt;&lt;br&gt;&lt;/div&gt;&lt;div&gt;&lt;br&gt;&lt;/div&gt;" style="text;html=1;align=center;verticalAlign=middle;whiteSpace=wrap;rounded=0;fontStyle=1;fontSize=10;" vertex="1" parent="1">
          <mxGeometry x="255" y="590" width="140" height="80" as="geometry" />
        </mxCell>
        <mxCell id="YeODS-Fjwhld5FZguGB1-51" value="&lt;div style=&quot;text-align: left;&quot;&gt;&lt;span style=&quot;background-color: transparent; color: light-dark(rgb(0, 0, 0), rgb(255, 255, 255));&quot;&gt;Object Type: Views&lt;/span&gt;&lt;/div&gt;&lt;div style=&quot;text-align: left;&quot;&gt;&lt;br&gt;&lt;/div&gt;&lt;div style=&quot;text-align: left;&quot;&gt;No Load&lt;/div&gt;&lt;div style=&quot;text-align: left;&quot;&gt;&lt;br&gt;&lt;/div&gt;&lt;div style=&quot;text-align: left;&quot;&gt;Transformations:&lt;/div&gt;&lt;div style=&quot;text-align: left;&quot;&gt;&lt;span style=&quot;white-space: pre;&quot;&gt;&#x9;&lt;/span&gt;-Data Integration&lt;br&gt;&lt;/div&gt;&lt;div style=&quot;text-align: left;&quot;&gt;&lt;span style=&quot;white-space: pre;&quot;&gt;&#x9;&lt;/span&gt;-Aggregations&lt;br&gt;&lt;/div&gt;&lt;div style=&quot;text-align: left;&quot;&gt;&lt;span style=&quot;white-space: pre;&quot;&gt;&#x9;&lt;/span&gt;-Business Logic&lt;br&gt;&lt;/div&gt;&lt;div style=&quot;text-align: left;&quot;&gt;&lt;br&gt;&lt;/div&gt;&lt;div style=&quot;text-align: left;&quot;&gt;Data Model :&amp;nbsp;&lt;/div&gt;&lt;div style=&quot;text-align: left;&quot;&gt;&lt;span style=&quot;white-space: pre;&quot;&gt;&#x9;&lt;/span&gt;-Star Schema&lt;br&gt;&lt;/div&gt;&lt;div style=&quot;text-align: left;&quot;&gt;&lt;span style=&quot;white-space: pre;&quot;&gt;&#x9;&lt;/span&gt;-Flat Table&lt;br&gt;&lt;/div&gt;&lt;div style=&quot;text-align: left;&quot;&gt;&lt;span style=&quot;white-space: pre;&quot;&gt;&#x9;&lt;/span&gt;-Aggregated Table&lt;br&gt;&lt;/div&gt;&lt;div style=&quot;text-align: left;&quot;&gt;&lt;br&gt;&lt;/div&gt;&lt;div&gt;&lt;br&gt;&lt;/div&gt;" style="text;html=1;align=center;verticalAlign=middle;whiteSpace=wrap;rounded=0;fontStyle=1;fontSize=10;" vertex="1" parent="1">
          <mxGeometry x="510" y="570" width="140" height="80" as="geometry" />
        </mxCell>
        <mxCell id="YeODS-Fjwhld5FZguGB1-52" value="" style="image;aspect=fixed;html=1;points=[];align=center;fontSize=12;image=img/lib/azure2/power_platform/PowerBI.svg;" vertex="1" parent="1">
          <mxGeometry x="860" y="205" width="51" height="68" as="geometry" />
        </mxCell>
        <mxCell id="YeODS-Fjwhld5FZguGB1-53" value="BI &amp;amp; Reporting" style="text;html=1;align=center;verticalAlign=middle;whiteSpace=wrap;rounded=0;fontStyle=1;fontSize=15;" vertex="1" parent="1">
          <mxGeometry x="877.5" y="294.25" width="120" height="30" as="geometry" />
        </mxCell>
        <mxCell id="YeODS-Fjwhld5FZguGB1-54" value="" style="sketch=0;outlineConnect=0;fontColor=#232F3E;gradientColor=none;fillColor=#8C4FFF;strokeColor=none;dashed=0;verticalLabelPosition=bottom;verticalAlign=top;align=center;html=1;fontSize=12;fontStyle=0;aspect=fixed;pointerEvents=1;shape=mxgraph.aws4.quicksight_paginated_reports;" vertex="1" parent="1">
          <mxGeometry x="950" y="206" width="53.26" height="67" as="geometry" />
        </mxCell>
        <mxCell id="YeODS-Fjwhld5FZguGB1-55" value="" style="sketch=0;points=[[0,0,0],[0.25,0,0],[0.5,0,0],[0.75,0,0],[1,0,0],[0,1,0],[0.25,1,0],[0.5,1,0],[0.75,1,0],[1,1,0],[0,0.25,0],[0,0.5,0],[0,0.75,0],[1,0.25,0],[1,0.5,0],[1,0.75,0]];outlineConnect=0;fontColor=#232F3E;fillColor=#8C4FFF;strokeColor=#ffffff;dashed=0;verticalLabelPosition=bottom;verticalAlign=top;align=center;html=1;fontSize=12;fontStyle=0;aspect=fixed;shape=mxgraph.aws4.resourceIcon;resIcon=mxgraph.aws4.elasticsearch_service;" vertex="1" parent="1">
          <mxGeometry x="898.5" y="372" width="78" height="78" as="geometry" />
        </mxCell>
        <mxCell id="YeODS-Fjwhld5FZguGB1-56" value="&lt;font style=&quot;font-size: 16px;&quot;&gt;&lt;b style=&quot;&quot;&gt;AD-Hoc SQL Queries&lt;/b&gt;&lt;/font&gt;" style="text;html=1;align=center;verticalAlign=middle;whiteSpace=wrap;rounded=0;" vertex="1" parent="1">
          <mxGeometry x="870" y="465" width="145" height="30" as="geometry" />
        </mxCell>
        <mxCell id="YeODS-Fjwhld5FZguGB1-57" value="" style="points=[];aspect=fixed;html=1;align=center;shadow=0;dashed=0;fillColor=#FF6A00;strokeColor=none;shape=mxgraph.alibaba_cloud.machine_learning;" vertex="1" parent="1">
          <mxGeometry x="906.92" y="530" width="69.58" height="70" as="geometry" />
        </mxCell>
        <mxCell id="YeODS-Fjwhld5FZguGB1-58" value="Machine Learning" style="text;html=1;align=center;verticalAlign=middle;whiteSpace=wrap;rounded=0;fontSize=17;fontStyle=1" vertex="1" parent="1">
          <mxGeometry x="877.5" y="615" width="148" height="30" as="geometry" />
        </mxCell>
        <mxCell id="YeODS-Fjwhld5FZguGB1-60" value="High Level Archicture" style="text;html=1;align=center;verticalAlign=middle;whiteSpace=wrap;rounded=0;fillColor=#6a00ff;fontColor=#ffffff;strokeColor=#3700CC;fontSize=90;fontStyle=3" vertex="1" parent="1">
          <mxGeometry x="-328.22" y="-280" width="1320" height="170" as="geometry" />
        </mxCell>
      </root>
    </mxGraphModel>
  </diagram>
</mxfile>
